<?xml version="1.0" standalone="no"?>
<!DOCTYPE svg PUBLIC "-//W3C//DTD SVG 20010904//EN"
 "http://www.w3.org/TR/2001/REC-SVG-20010904/DTD/svg10.dtd">
<svg version="1.0" xmlns="http://www.w3.org/2000/svg"
 width="460.000000pt" height="460.000000pt" viewBox="0 0 460.000000 460.000000"
 preserveAspectRatio="xMidYMid meet">

<g transform="translate(0.000000,460.000000) scale(0.100000,-0.100000)"
fill="#000000" stroke="none">
<path d="M3349 3980 c-82 -27 -111 -44 -152 -89 -20 -23 -37 -37 -37 -32 0 5
-12 11 -27 14 -16 3 -74 22 -131 42 -97 34 -113 37 -260 42 -152 5 -280 -5
-320 -27 -9 -5 -42 -16 -72 -25 -30 -9 -64 -20 -75 -25 -11 -5 -42 -16 -70
-24 -27 -9 -62 -24 -76 -34 -41 -27 -142 -105 -168 -129 -18 -16 -31 -20 -57
-16 -35 6 -47 -9 -19 -24 12 -7 7 -18 -29 -57 -49 -55 -84 -137 -116 -271 -12
-49 -26 -108 -33 -130 -19 -69 -15 -689 6 -810 2 -11 7 -30 11 -43 5 -14 3
-31 -6 -45 -8 -12 -22 -44 -32 -72 -11 -27 -25 -57 -32 -66 -8 -8 -14 -18 -14
-22 0 -4 -36 -81 -80 -172 -44 -90 -89 -189 -100 -218 -11 -30 -29 -71 -39
-92 -22 -46 -26 -38 -36 72 -6 63 -4 76 13 97 22 29 47 109 39 129 -5 14 -97
34 -213 45 -81 8 -71 -12 -114 247 -17 99 -35 203 -40 230 -6 28 -19 106 -30
175 -25 152 -56 318 -105 550 -56 264 -76 382 -73 417 3 25 0 34 -15 39 -13 4
-16 11 -11 22 4 10 17 47 30 83 29 85 61 148 79 155 16 7 8 34 -10 34 -27 0
-48 -52 -194 -477 -18 -51 -14 -82 8 -69 7 5 11 -6 11 -31 0 -21 9 -70 19
-108 10 -39 22 -90 26 -115 4 -25 16 -90 27 -145 11 -55 26 -131 34 -170 8
-38 20 -90 28 -115 17 -52 33 -139 76 -410 17 -107 37 -215 45 -240 31 -102
27 -160 -9 -160 -31 0 -157 -63 -182 -91 -11 -13 -26 -42 -33 -65 -12 -36 -11
-46 3 -76 27 -56 82 -80 195 -86 56 -2 115 1 141 8 25 6 55 14 67 17 19 4 24
-4 51 -94 17 -54 38 -124 47 -156 10 -33 25 -78 35 -100 9 -23 20 -51 24 -62
7 -19 8 -19 21 -1 9 11 12 30 8 50 -7 36 -52 149 -63 156 -4 3 -17 39 -29 80
-12 41 -29 93 -36 114 l-15 40 52 52 c29 29 54 51 57 49 2 -3 10 -50 17 -105
12 -93 12 -104 -7 -157 -19 -57 -16 -72 18 -73 7 0 14 -21 18 -47 14 -110 17
-123 30 -123 22 0 24 25 10 87 -25 103 -23 109 39 127 30 9 66 16 80 16 16 0
26 6 26 14 0 23 -32 27 -86 11 -76 -23 -84 -21 -84 22 0 37 19 90 90 260 49
115 132 277 126 243 -3 -14 -13 -61 -22 -105 -14 -70 -16 -126 -10 -445 3
-201 10 -426 16 -500 6 -74 15 -272 20 -440 5 -168 14 -323 19 -345 5 -22 17
-73 28 -112 l18 -73 192 0 c183 0 193 1 203 20 15 29 5 40 -28 30 -72 -22
-220 -42 -248 -33 -28 9 -28 9 23 26 29 9 58 17 66 17 8 0 50 18 95 40 44 22
85 40 90 40 6 0 13 -26 17 -58 9 -79 11 -82 43 -82 30 0 52 16 52 38 0 10 -7
12 -23 8 -21 -5 -23 -3 -19 24 2 17 6 30 8 30 2 0 15 -12 29 -27 22 -24 27
-26 36 -13 6 9 8 40 4 75 -3 33 -10 124 -16 203 -11 141 -11 144 12 189 28 55
71 89 121 97 28 4 50 -1 96 -24 32 -16 65 -36 72 -45 25 -30 68 -45 129 -45
32 0 61 -4 63 -8 2 -4 28 -19 58 -32 50 -22 71 -24 235 -28 99 -2 183 -7 187
-10 3 -4 14 -80 24 -170 l17 -163 -24 -17 c-13 -9 -37 -30 -53 -47 -29 -30
-29 -30 -6 -33 16 -3 30 5 45 24 25 31 55 28 55 -6 0 -16 7 -20 30 -20 24 0
30 4 30 21 0 15 -5 19 -15 15 -8 -3 -15 0 -15 6 0 16 61 1 85 -22 25 -24 136
-31 118 -8 -6 7 -13 40 -17 73 -4 33 -19 129 -35 213 l-28 152 26 6 c86 18
115 27 157 49 26 14 62 25 80 25 45 0 84 19 89 44 3 12 12 84 21 161 9 77 22
158 30 180 8 23 14 80 14 131 0 78 -5 107 -36 199 -40 122 -41 146 -6 300 31
139 44 279 40 443 -1 83 0 148 3 146 8 -5 26 -137 34 -254 4 -47 13 -110 20
-140 35 -137 43 -216 49 -436 6 -225 5 -233 -19 -315 -28 -96 -29 -99 -14 -99
5 0 17 17 25 38 8 20 19 46 24 57 24 50 29 115 20 255 -5 80 -10 184 -10 232
0 59 -8 119 -25 185 -13 54 -29 150 -35 213 -6 63 -15 138 -20 165 -5 28 -17
91 -25 140 -9 50 -21 110 -26 135 -6 25 -21 108 -34 185 -43 250 -74 355 -106
355 -21 0 -20 -32 1 -78 12 -26 26 -74 30 -107 5 -33 16 -96 26 -140 22 -97
22 -124 0 -195 -27 -87 -42 -138 -70 -240 -14 -52 -37 -138 -52 -190 -41 -149
-65 -271 -62 -314 3 -45 32 -72 48 -46 14 22 12 30 -6 30 -14 0 -16 8 -11 53
7 65 35 188 77 337 17 63 45 164 61 224 50 183 55 175 64 -89 9 -254 -4 -417
-42 -550 -14 -49 -28 -110 -30 -135 -5 -51 21 -166 43 -191 33 -37 43 -198 18
-294 -9 -33 -24 -112 -33 -176 -15 -107 -37 -169 -60 -169 -19 0 -71 23 -71
31 0 5 -13 15 -30 24 -34 18 -74 11 -93 -14 -6 -10 -24 -25 -39 -35 -25 -17
-30 -16 -96 3 -109 33 -133 28 -163 -30 -23 -46 -37 -48 -70 -13 -33 36 -79
54 -136 54 -56 0 -96 -22 -124 -70 -24 -39 -34 -33 -79 46 -16 30 -35 54 -40
54 -21 0 -21 -30 -1 -63 23 -38 27 -52 10 -41 -7 4 -44 10 -83 14 -62 6 -80
13 -140 53 -82 56 -115 66 -182 57 -62 -7 -99 -30 -126 -76 -11 -19 -22 -34
-25 -34 -4 0 -31 20 -61 45 -30 25 -64 45 -76 45 -13 0 -44 -25 -83 -66 -35
-37 -67 -63 -73 -59 -6 4 -23 32 -37 63 -24 55 -68 112 -85 112 -12 0 -42 -30
-63 -63 l-18 -28 -13 38 c-8 21 -14 50 -14 66 0 15 -4 35 -9 45 -22 40 -49
994 -32 1134 11 97 50 235 87 308 13 26 24 52 24 58 0 5 10 22 22 37 15 20 18
30 10 33 -7 2 -9 8 -6 14 4 6 1 14 -5 18 -16 9 -33 229 -30 395 1 72 -2 168
-6 215 -10 121 14 295 62 445 34 107 43 125 89 174 l51 56 309 -4 c302 -2 311
-2 404 22 95 25 206 67 330 126 36 17 80 31 98 31 18 0 41 5 51 11 15 10 26 7
62 -18 24 -17 54 -42 66 -55 l22 -24 -62 -17 c-34 -9 -105 -31 -157 -48 -335
-110 -537 -137 -911 -125 -172 6 -211 4 -241 -9 -45 -18 -55 -33 -35 -52 16
-17 37 -10 37 11 0 19 33 26 110 25 82 -1 104 -9 107 -35 2 -19 -1 -20 -43
-14 -24 4 -47 3 -50 -1 -7 -12 19 -48 40 -55 17 -6 18 -12 10 -68 -23 -161 9
-291 71 -291 24 0 33 7 47 35 28 58 51 151 55 225 l4 70 -55 60 -55 60 102 2
c160 4 386 22 457 38 156 34 279 66 335 85 88 32 227 70 253 70 30 0 106 -80
136 -145 50 -105 65 -142 71 -170 4 -17 16 -54 27 -84 31 -88 78 -344 81 -441
2 -92 11 -106 35 -57 10 21 9 48 -8 159 -33 217 -95 433 -168 592 l-36 78 23
19 c13 11 30 19 38 19 17 0 92 37 116 58 20 18 23 55 5 70 -7 5 -29 13 -48 17
-19 4 -41 11 -50 16 -8 4 -41 11 -72 14 -32 4 -58 10 -58 14 0 4 10 16 21 27
31 27 79 100 79 118 0 22 -59 20 -131 -4z m81 -29 c0 -5 -26 -34 -57 -65 -72
-69 -67 -77 60 -92 51 -6 109 -19 131 -29 36 -17 37 -19 20 -33 -16 -12 -79
-43 -134 -66 -8 -3 -22 -11 -31 -18 -14 -10 -21 -7 -43 18 -14 16 -26 37 -26
47 0 10 -8 17 -21 17 -11 0 -48 23 -80 52 -55 48 -59 53 -43 65 10 7 26 13 36
13 12 0 18 8 18 25 0 19 9 29 43 44 65 29 127 40 127 22z m-504 -47 c34 -7 81
-22 105 -32 l42 -18 -74 -36 c-170 -82 -216 -101 -354 -145 -39 -12 -109 -17
-314 -20 -146 -3 -285 -2 -310 2 l-46 7 32 26 c111 95 178 134 270 158 30 8
73 23 96 33 39 18 111 35 182 45 58 8 309 -5 371 -20z m-2089 -362 c7 -31 21
-102 32 -157 11 -55 27 -131 35 -170 28 -119 67 -316 81 -402 7 -45 21 -120
30 -165 9 -46 24 -139 34 -208 10 -69 31 -196 47 -283 24 -136 26 -160 13
-168 -8 -5 -20 -8 -28 -6 -14 2 -42 100 -56 191 -3 27 -11 58 -16 70 -5 11
-16 66 -23 121 -22 154 -63 365 -80 415 -8 25 -20 77 -26 115 -7 39 -20 106
-31 150 -20 85 -43 224 -54 317 -6 57 13 253 24 242 3 -3 11 -31 18 -62z
m1323 -472 c0 -5 -4 -10 -10 -10 -5 0 -10 5 -10 10 0 6 5 10 10 10 6 0 10 -4
10 -10z m-847 -1116 c58 -20 75 -45 53 -79 -9 -14 -22 -22 -29 -20 -7 3 -35 1
-62 -4 -46 -9 -51 -7 -72 15 -13 14 -26 43 -29 64 l-7 40 50 0 c27 0 71 -7 96
-16z m-161 -59 c23 -71 23 -74 -27 -95 -31 -13 -45 -25 -45 -39 0 -11 6 -21
13 -24 40 -15 -102 -67 -184 -67 -44 0 -79 14 -79 32 0 6 7 20 17 30 15 17 15
18 0 18 -35 0 -17 38 36 74 75 51 111 62 142 42 31 -21 35 -20 35 3 0 11 5 23
10 26 6 3 10 17 10 31 0 22 4 25 28 22 23 -3 30 -11 44 -53z m118 -84 c0 -11
-31 -24 -39 -16 -3 3 1 10 9 15 19 12 30 12 30 1z m-73 -36 c1 -5 -15 -18 -37
-27 -31 -13 -40 -14 -40 -3 0 29 68 56 77 30z m115 -12 c-11 -16 -34 -41 -50
-57 -30 -27 -30 -28 -41 -8 -16 29 -16 29 37 62 61 38 80 39 54 3z m-123 -70
c22 -47 -2 -58 -137 -60 -112 -2 -115 -2 -72 11 79 23 164 56 174 66 15 15 22
12 35 -17z m646 -1147 c23 -43 49 -83 58 -88 24 -13 53 6 82 52 28 44 64 80
80 80 6 0 11 -24 13 -57 2 -75 21 -281 28 -314 5 -24 0 -29 -68 -64 -75 -38
-237 -95 -273 -95 -46 1 -85 163 -85 356 0 94 3 122 13 119 18 -7 31 5 57 53
14 24 30 41 38 40 8 -2 33 -38 57 -82z m1745 44 c25 -20 25 -20 5 -36 -32 -26
-96 -51 -146 -58 -44 -7 -47 -6 -51 19 -5 22 -2 25 26 25 31 0 63 17 98 52 23
23 37 22 68 -2z m-268 -27 c44 -16 47 -18 41 -47 -8 -40 -4 -37 -59 -44 -43
-5 -46 -4 -40 16 5 15 1 25 -13 34 -26 16 -27 34 -3 47 22 14 20 14 74 -6z
m-269 -4 c27 -14 87 -70 87 -81 0 -4 -58 -8 -130 -8 -71 0 -130 3 -130 7 0 8
51 76 64 85 17 12 85 9 109 -3z m-898 -35 c24 -22 27 -30 20 -67 -3 -23 -10
-91 -15 -150 -4 -59 -11 -111 -14 -114 -3 -4 -6 0 -6 8 0 8 -7 59 -15 114 -16
112 -20 235 -6 235 4 0 21 -12 36 -26z m1229 -101 c3 -16 10 -57 16 -93 6 -36
15 -78 20 -95 12 -39 33 -215 26 -222 -2 -3 -17 7 -33 21 -15 14 -52 36 -80
48 -45 18 -54 26 -58 52 -4 30 -25 224 -28 276 -2 26 5 28 115 38 11 1 18 -8
22 -25z m-1179 -172 c3 -47 9 -94 11 -103 8 -26 -23 -23 -37 3 -9 17 -9 133 1
209 0 3 4 -1 9 -9 5 -7 12 -52 16 -100z"/>
<path d="M940 3831 c0 -4 9 -30 20 -57 10 -27 28 -94 39 -149 20 -96 50 -236
86 -395 48 -211 57 -254 75 -365 11 -66 29 -169 40 -230 11 -60 24 -141 30
-180 17 -105 39 -199 72 -305 34 -110 48 -142 66 -148 18 -5 15 47 -4 83 -43
82 -102 320 -143 585 -30 191 -56 331 -88 470 -73 322 -81 357 -92 415 -19 96
-51 235 -61 261 -9 22 -40 35 -40 15z"/>
<path d="M2995 3510 c-16 -10 -39 -19 -51 -19 -33 -1 -54 -33 -64 -97 -17
-100 16 -215 67 -235 35 -13 68 9 83 57 12 37 9 186 -5 231 -6 18 -2 25 19 33
31 11 32 18 9 36 -22 17 -21 17 -58 -6z"/>
<path d="M2500 3066 c0 -8 7 -16 15 -20 12 -4 8 -16 -18 -63 -56 -98 -87 -142
-131 -184 -10 -10 -16 -24 -13 -32 14 -36 250 -64 291 -34 16 11 17 27 14 138
-3 142 -8 151 -90 188 -55 25 -68 26 -68 7z m83 -47 c34 -15 47 -62 47 -166 0
-86 -1 -91 -22 -97 -36 -9 -119 -6 -162 7 -40 12 -61 37 -32 37 26 0 146 63
146 77 0 17 0 17 -54 -7 -51 -22 -60 -11 -28 31 10 13 32 48 48 76 16 29 30
53 31 53 1 0 13 -5 26 -11z"/>
<path d="M3409 2414 c-17 -29 -24 -60 -31 -142 -4 -58 -11 -115 -14 -126 -6
-19 -7 -19 -28 6 -11 14 -29 39 -38 57 -18 32 -48 42 -48 16 0 -8 -6 -15 -14
-15 -14 0 -71 -59 -92 -96 -10 -17 -13 -15 -23 21 -15 57 -37 84 -61 78 -25
-7 -47 -45 -94 -163 -20 -52 -43 -106 -51 -120 -17 -31 -50 -37 -77 -14 -23
22 -64 109 -85 179 -22 78 -34 103 -50 109 -24 10 -38 -8 -95 -120 -47 -95
-73 -134 -82 -123 -1 2 -13 51 -25 109 -32 145 -44 173 -73 164 -13 -4 -28
-14 -35 -23 -19 -25 -107 -174 -115 -193 -18 -43 -38 1 -38 82 0 57 -11 100
-26 100 -26 0 -83 -99 -129 -225 -10 -27 -21 -54 -25 -60 -4 -5 -17 -43 -30
-82 -13 -43 -27 -70 -33 -66 -11 6 -3 401 9 441 4 16 2 22 -9 22 -17 0 -25
-76 -28 -275 -4 -226 1 -257 38 -236 12 6 27 32 36 63 36 123 131 351 153 369
12 10 14 3 15 -42 0 -30 3 -72 7 -94 6 -34 11 -40 34 -43 30 -4 43 13 108 133
23 44 50 86 58 93 22 17 21 22 75 -218 10 -42 17 -56 33 -58 24 -3 69 61 110
158 47 113 63 115 90 14 18 -72 64 -171 93 -201 15 -16 33 -23 60 -23 36 0 41
3 59 43 11 23 26 60 32 82 7 22 16 45 20 50 3 6 14 31 24 56 9 26 25 54 36 64
17 16 19 16 28 -2 5 -10 15 -36 22 -58 21 -66 43 -83 56 -42 12 37 53 96 79
113 24 16 27 16 41 -2 44 -55 205 -414 218 -486 4 -22 13 -38 20 -38 27 0 35
59 13 82 -8 7 -20 31 -27 53 -13 41 -62 150 -108 239 -22 44 -24 53 -13 83 7
19 16 80 20 136 5 65 16 121 29 155 25 60 14 69 -19 16z"/>
</g>
</svg>
